PathFileType	4	(X/Y/Z)	/Users/itak/Documents/Research/Walk-IL/dataset/trc/00189_00008.trc
DataRate	CameraRate	NumFrames	NumMarkers	Units	OrigDataRate	OrigDataStartFrame	OrigNumFrames
100.000000	100.000000	4	53	mm	100.000000	205	821
Frame#	Time	RPSI			LPSI			L3			STRN			T10			C7			CLAV			RBAK			LBAK			LSHO			LUPA			LAEL			LAOL			LWTS			LWPS			LFRA			LIFD			LHPS			LHTS			RSHO			RUPA			RAEL			RAOL			RWTS			RWPS			RFRA			RIFD			RHTS			RHPS			RBHD			LFHD			RFHD			LBHD			LHIP			RHIP			RASI			LASI			LKNE			LTHI			LANK			LTIP			LTOE			LMT1			LMT5			LHEE			RKNE			RTHI			RANK			RTIP			RTOE			RMT1			RMT5			RHEE			
		X1	Y1	Z1	X2	Y2	Z2	X3	Y3	Z3	X4	Y4	Z4	X5	Y5	Z5	X6	Y6	Z6	X7	Y7	Z7	X8	Y8	Z8	X9	Y9	Z9	X10	Y10	Z10	X11	Y11	Z11	X12	Y12	Z12	X13	Y13	Z13	X14	Y14	Z14	X15	Y15	Z15	X16	Y16	Z16	X17	Y17	Z17	X18	Y18	Z18	X19	Y19	Z19	X20	Y20	Z20	X21	Y21	Z21	X22	Y22	Z22	X23	Y23	Z23	X24	Y24	Z24	X25	Y25	Z25	X26	Y26	Z26	X27	Y27	Z27	X28	Y28	Z28	X29	Y29	Z29	X30	Y30	Z30	X31	Y31	Z31	X32	Y32	Z32	X33	Y33	Z33	X34	Y34	Z34	X35	Y35	Z35	X36	Y36	Z36	X37	Y37	Z37	X38	Y38	Z38	X39	Y39	Z39	X40	Y40	Z40	X41	Y41	Z41	X42	Y42	Z42	X43	Y43	Z43	X44	Y44	Z44	X45	Y45	Z45	X46	Y46	Z46	X47	Y47	Z47	X48	Y48	Z48	X49	Y49	Z49	X50	Y50	Z50	X51	Y51	Z51	X52	Y52	Z52	X53	Y53	Z53	

206	2.05	-462.4549865722656	1024.84765625	743.528076171875	-542.2747802734375	1026.016723632812	836.0806274414062	-497.8627624511719	1061.940307617188	785.0938720703125	-717.4908447265625	1263.393310546875	617.6822509765625	-477.2279968261719	1229.015014648438	798.5114135742188	-556.1241455078125	1492.052368164062	765.1054077148438	-710.7853393554688	1378.543334960938	642.010986328125	-425.2838134765625	1326.706665039062	717.0712280273438	-607.8580322265625	1464.295776367188	850.1329956054688	-713.24609375	1445.119873046875	868.869384765625	-713.784423828125	1314.45751953125	952.8936157226562	-717.2919311523438	1101.722412109375	975.8754272460938	-643.328857421875	1083.85498046875	928.0369873046875	-805.3895874023438	866.8246459960938	922.3868408203125	-742.2166748046875	848.0218505859375	988.0689697265625	-731.60498046875	991.07373046875	989.9713134765625	-805.2588500976562	680.504638671875	901.2611083984375	-759.1613159179688	777.9035034179688	981.0121459960938	-821.6954956054688	789.2281494140625	941.7693481445312	-500.2730407714844	1474.62158203125	580.79150390625	-439.7543334960938	1411.375610351562	534.1975708007812	-393.6106872558594	1121.1083984375	489.6843872070312	-442.7046813964844	1111.889892578125	576.2301025390625	-540.4197998046875	907.6089477539062	423.0544738769531	-454.5086059570312	880.916748046875	425.2270812988281	-410.4078063964844	1048.986328125	459.1564025878906	-588.5170288085938	724.8308715820312	425.9638366699219	-568.1077270507812	818.5520629882812	396.6846923828125	-488.7259521484375	801.282958984375	409.7475891113281	-558.1737670898438	1639.71630859375	689.5845336914062	-763.5527954101562	1698.501342773438	645.7969360351562	-666.2215576171875	1689.51123046875	561.0294189453125	-655.6590576171875	1655.39013671875	784.4581909179688	-705.3589477539062	970.3601684570312	856.1647338867188	-493.3743286132812	973.1973876953125	549.2411499023438	-591.662841796875	1003.555786132812	532.5103149414062	-756.0197143554688	1007.67431640625	730.6210327148438	-862.0922241210938	510.2149658203125	687.0452880859375	-830.9237060546875	636.8331298828125	757.4708251953125	-968.4884643554688	42.7529296875	626.514892578125	-920.3910522460938	290.2389526367188	668.9673461914062	-1053.8310546875	147.2464141845703	468.2762756347656	-995.069580078125	118.2727203369141	466.7342224121094	-1057.392211914062	79.45552062988281	566.4599609375	-883.8404541015625	25.59993171691895	624.1434936523438	-508.0835876464844	479.0512390136719	658.6561279296875	-528.5523071289062	735.6597900390625	548.2780151367188	-365.9889526367188	47.95188522338867	847.7818603515625	-514.7669677734375	359.5790405273438	703.568603515625	-573.2660522460938	42.60583114624023	760.928955078125	-548.6448364257812	42.28343963623047	825.486083984375	-441.7785034179688	39.75455474853516	757.1334838867188	-355.99169921875	56.88676452636719	931.950439453125	
207	2.06	-472.0402221679688	1023.603454589844	739.0296630859375	-552.6229858398438	1024.6962890625	830.829833984375	-507.5875854492188	1060.487426757812	780.2446899414062	-725.1702270507812	1262.397583007812	610.8848876953125	-486.9086303710938	1227.335205078125	794.2281494140625	-565.0916748046875	1490.71435546875	760.4918212890625	-718.5201416015625	1377.446655273438	635.4906616210938	-433.9317626953125	1325.115966796875	713.751953125	-617.725341796875	1462.81640625	844.913330078125	-723.4287719726562	1443.66015625	862.4974975585938	-724.5792846679688	1312.857788085938	946.4385986328125	-727.6651611328125	1100.316040039062	969.3324584960938	-653.4347534179688	1082.618286132812	921.7717895507812	-811.9542236328125	863.4142456054688	918.1142578125	-748.7352294921875	846.733642578125	984.2346801757812	-740.6170043945312	989.8290405273438	984.346435546875	-807.8606567382812	676.4610595703125	899.6448364257812	-764.3264770507812	776.2374877929688	978.1879272460938	-826.7045288085938	785.6360473632812	938.4382934570312	-507.1430969238281	1473.28271484375	576.7838745117188	-446.0013732910156	1410.084228515625	530.9990844726562	-398.3269958496094	1120.120239257812	487.7382507324219	-448.5591430664062	1110.736938476562	573.466552734375	-542.010009765625	904.949462890625	419.3769836425781	-455.7366027832031	879.2162475585938	423.0387573242188	-413.9671936035156	1047.824462890625	457.1136779785156	-588.102294921875	721.6796875	422.2222595214844	-568.3302612304688	815.5196533203125	392.8995361328125	-488.8128356933594	799.1730346679688	407.2768249511719	-566.4060668945312	1638.459838867188	684.803955078125	-771.0948486328125	1697.343383789062	638.6080322265625	-672.7942504882812	1688.25390625	554.9950561523438	-664.8621215820312	1654.289672851562	778.5529174804688	-716.1724243164062	969.728271484375	849.072998046875	-500.8011779785156	971.8577880859375	544.481689453125	-598.9834594726562	1002.301635742188	526.5447387695312	-765.3635864257812	1006.605895996094	722.7982788085938	-870.6651000976562	509.4064025878906	677.696044921875	-840.5978393554688	635.9871826171875	747.7994384765625	-972.88525390625	40.41996383666992	620.435546875	-926.8869018554688	288.2125549316406	660.7652587890625	-1056.29052734375	141.4803619384766	459.3888854980469	-997.1135864257812	113.0467300415039	459.3185119628906	-1060.53662109375	75.36703491210938	558.79541015625	-887.489013671875	24.57051467895508	620.0587768554688	-513.1862182617188	478.1194458007812	654.8421020507812	-534.67919921875	734.3200073242188	543.678955078125	-366.342529296875	49.52803802490234	847.7965087890625	-518.6197509765625	358.5999755859375	700.5096435546875	-573.2611083984375	42.59786605834961	760.83251953125	-548.619140625	42.74821090698242	825.34912109375	-441.8525695800781	39.78729629516602	757.210693359375	-356.6291198730469	59.73336791992188	932.0071411132812	
208	2.07	-481.8122863769531	1022.517272949219	734.3922729492188	-563.145751953125	1023.583801269531	825.4360961914062	-517.5139770507812	1059.216064453125	775.2498779296875	-732.976806640625	1261.6298828125	604.0220336914062	-496.7755737304688	1225.808349609375	789.8587036132812	-574.1705322265625	1489.55810546875	755.8273315429688	-726.351318359375	1376.576538085938	628.9337158203125	-442.7324523925781	1323.671264648438	710.3842163085938	-627.6992797851562	1461.5205078125	839.6196899414062	-733.7009887695312	1442.42041015625	856.0616455078125	-735.4383544921875	1311.471313476562	939.9234008789062	-738.0018310546875	1099.089721679688	962.7017211914062	-663.5590209960938	1081.589965820312	915.3997192382812	-818.5919799804688	860.350341796875	913.7335205078125	-755.350830078125	845.7474365234375	980.2459106445312	-749.669677734375	988.8203125	978.6185302734375	-810.6763916015625	673.0113525390625	897.8784790039062	-769.6314086914062	774.9310302734375	975.2044677734375	-831.8074340820312	782.3978881835938	935.0297241210938	-514.1005859375	1472.117919921875	572.7637939453125	-452.3573608398438	1408.967407226562	527.7940063476562	-403.1723022460938	1119.335693359375	485.8307495117188	-454.5315551757812	1109.757690429688	570.6826782226562	-543.5291137695312	902.4511108398438	415.7074890136719	-456.8914489746094	877.7378540039062	420.9194641113281	-417.5701293945312	1046.879516601562	455.1013793945312	-587.466796875	718.68798828125	418.5331726074219	-568.3605346679688	812.6304931640625	389.1704711914062	-488.7410888671875	797.2860107421875	404.8900451660156	-574.6406860351562	1637.347412109375	679.9859008789062	-778.56787109375	1696.463256835938	631.298828125	-679.3021850585938	1687.181762695312	548.889892578125	-674.0882568359375	1653.417358398438	772.5527954101562	-727.22412109375	969.4085083007812	841.8198852539062	-508.4081726074219	970.626220703125	539.597900390625	-606.4856567382812	1001.226013183594	520.4440307617188	-774.8545532226562	1005.773254394531	714.8377075195312	-879.1414184570312	508.7198181152344	668.4071044921875	-850.1928100585938	635.3807373046875	738.1038208007812	-976.2300415039062	38.19089508056641	615.654296875	-932.91748046875	286.195068359375	652.92333984375	-1058.473266601562	134.6492767333984	451.3950500488281	-998.7559204101562	107.0297012329102	452.8513793945312	-1062.895141601562	70.68891906738281	552.362060546875	-890.17333984375	24.03340911865234	617.067626953125	-518.4940185546875	477.2853088378906	650.8223876953125	-540.98974609375	733.08544921875	538.9595336914062	-366.6762084960938	51.32812118530273	847.6671142578125	-522.58740234375	357.7215576171875	697.2438354492188	-573.2568359375	42.59036254882812	760.75048828125	-548.5986938476562	43.27881622314453	825.2047729492188	-441.9285888671875	39.78874969482422	757.2113037109375	-357.249267578125	62.95938873291016	931.8942260742188	
209	2.08	-491.7357177734375	1021.609985351562	729.6099243164062	-573.7997436523438	1022.74169921875	819.9024658203125	-527.6032104492188	1058.181030273438	770.1159057617188	-740.8952026367188	1261.1123046875	597.0936279296875	-506.80908203125	1224.488403320312	785.42041015625	-583.3565673828125	1488.618530273438	751.1041259765625	-734.2715454101562	1375.955810546875	622.335205078125	-451.6742248535156	1322.414306640625	706.9780883789062	-637.7979736328125	1460.446166992188	834.247314453125	-744.0625	1441.426391601562	849.5572509765625	-746.3595581054688	1310.325805664062	933.3418579101562	-748.322998046875	1098.06982421875	955.9920654296875	-673.6888427734375	1080.793212890625	908.9485473632812	-825.334228515625	857.66650390625	909.2151489257812	-762.1051635742188	845.0697021484375	976.0784912109375	-758.7734375	988.0636596679688	972.7892456054688	-813.7551879882812	670.161865234375	895.9039916992188	-775.118408203125	773.990478515625	972.0153198242188	-837.0645141601562	779.5609741210938	931.4935302734375	-521.135498046875	1471.157104492188	568.72265625	-458.8182373046875	1408.046508789062	524.5792846679688	-408.1498413085938	1118.766723632812	483.9517822265625	-460.6456909179688	1108.965576171875	567.875	-544.9841918945312	900.14306640625	412.0503234863281	-457.9944763183594	876.5060424804688	418.8729553222656	-421.236083984375	1046.172119140625	453.1173095703125	-586.6159057617188	715.8829345703125	414.8999938964844	-568.2047729492188	809.9150390625	385.5019836425781	-488.5308227539062	795.6533203125	402.5938720703125	-582.87939453125	1636.415283203125	675.1293334960938	-785.973388671875	1695.888427734375	623.8653564453125	-685.7505493164062	1686.326904296875	542.7115478515625	-683.341064453125	1652.8017578125	766.4525756835938	-738.4696655273438	969.4254150390625	834.4246826171875	-516.1643676757812	969.52001953125	534.582275390625	-614.145263671875	1000.353881835938	514.2000732421875	-784.4547119140625	1005.223754882812	706.7528686523438	-887.517578125	508.2266540527344	659.1845703125	-859.6846313476562	635.0457763671875	728.4508666992188	-978.77978515625	36.24749374389648	611.9873046875	-938.6463623046875	284.3641967773438	645.33642578125	-1060.507446289062	126.9777145385742	444.1455688476562	-1000.158142089844	100.4570770263672	447.1836242675781	-1064.693237304688	65.64116668701172	546.9878540039062	-892.1539306640625	24.10658073425293	614.97802734375	-524.0740356445312	476.5471496582031	646.5305786132812	-547.5182495117188	731.9789428710938	534.1019287109375	-367.0198364257812	53.38677978515625	847.3956909179688	-526.7198486328125	356.9387512207031	693.7086181640625	-573.253662109375	42.58135223388672	760.6696166992188	-548.6012573242188	43.84858703613281	824.9956665039062	-442.017822265625	39.75888442993164	757.1378173828125	-357.9044189453125	66.62331390380859	931.5983276367188	
